{
    "asset" : {
        "generator" : "Khronos glTF Blender I/O v3.3.36",
        "version" : "2.0"
    },
    "scene" : 0,
    "scenes" : [
        {
            "name" : "Scene",
            "nodes" : [
                0
            ]
        }
    ],
    "nodes" : [
        {
            "mesh" : 0,
            "name" : "3Drop-text",
            "translation" : [
                -2,
                0,
                0
            ]
        }
    ],
    "meshes" : [
        {
            "name" : "#Drop_text",
            "primitives" : [
                {
                    "attributes" : {
                        "POSITION" : 0,
                        "NORMAL" : 1,
                        "TEXCOORD_0" : 2
                    },
                    "indices" : 3
                }
            ]
        }
    ],
    "accessors" : [
        {
            "bufferView" : 0,
            "componentType" : 5126,
            "count" : 19404,
            "max" : [
                4.256855010986328,
                0.10999999940395355,
                0.2715904116630554
            ],
            "min" : [
                0.07412649691104889,
                -0.10999999940395355,
                -0.9433746337890625
            ],
            "type" : "VEC3"
        },
        {
            "bufferView" : 1,
            "componentType" : 5126,
            "count" : 19404,
            "type" : "VEC3"
        },
        {
            "bufferView" : 2,
            "componentType" : 5126,
            "count" : 19404,
            "type" : "VEC2"
        },
        {
            "bufferView" : 3,
            "componentType" : 5123,
            "count" : 89640,
            "type" : "SCALAR"
        }
    ],
    "bufferViews" : [
        {
            "buffer" : 0,
            "byteLength" : 232848,
            "byteOffset" : 0,
            "target" : 34962
        },
        {
            "buffer" : 0,
            "byteLength" : 232848,
            "byteOffset" : 232848,
            "target" : 34962
        },
        {
            "buffer" : 0,
            "byteLength" : 155232,
            "byteOffset" : 465696,
            "target" : 34962
        },
        {
            "buffer" : 0,
            "byteLength" : 179280,
            "byteOffset" : 620928,
            "target" : 34963
        }
    ],
    "buffers" : [
        {
            "byteLength" : 800208,
            "uri" : "data:application/octet-stream;base64,"
        }
    ]
}
