{
    "asset" : {
        "generator" : "Khronos glTF Blender I/O v3.3.36",
        "version" : "2.0"
    },
    "scene" : 0,
    "scenes" : [
        {
            "name" : "Scene",
            "nodes" : [
                0
            ]
        }
    ],
    "nodes" : [
        {
            "mesh" : 0,
            "name" : "Square Trefoil 01"
        }
    ],
    "meshes" : [
        {
            "name" : "Square Trefoil 01",
            "primitives" : [
                {
                    "attributes" : {
                        "POSITION" : 0,
                        "NORMAL" : 1
                    },
                    "indices" : 2
                }
            ]
        }
    ],
    "accessors" : [
        {
            "bufferView" : 0,
            "componentType" : 5126,
            "count" : 13680,
            "max" : [
                26.869558334350586,
                21.164073944091797,
                11.891528129577637
            ],
            "min" : [
                -26.869558334350586,
                -28.090909957885742,
                -11.891528129577637
            ],
            "type" : "VEC3"
        },
        {
            "bufferView" : 1,
            "componentType" : 5126,
            "count" : 13680,
            "type" : "VEC3"
        },
        {
            "bufferView" : 2,
            "componentType" : 5123,
            "count" : 13680,
            "type" : "SCALAR"
        }
    ],
    "bufferViews" : [
        {
            "buffer" : 0,
            "byteLength" : 164160,
            "byteOffset" : 0,
            "target" : 34962
        },
        {
            "buffer" : 0,
            "byteLength" : 164160,
            "byteOffset" : 164160,
            "target" : 34962
        },
        {
            "buffer" : 0,
            "byteLength" : 27360,
            "byteOffset" : 328320,
            "target" : 34963
        }
    ],
    "buffers" : [
        {
            "byteLength" : 355680,
            "uri" : "data:application/octet-stream;base64,"
        }
    ]
}
